# xmcd CD database file
#
# Track frame offsets:
#	182
#	52187
#	79710
#	131385
#	212867
#	282102
#
# Disc length: 4431 seconds
#
# Revision: 0
# Processed by: cddbd v1.4PL0 Copyright (c) Steve Scherf et al.
# Submitted via: CDex 1.50Beta7
#
DISCID=53114d06
DTITLE=Tony Williams - Tokyo
DYEAR=1993
DGENRE=Jazz
TTITLE0=Geo rose
TTITLE1=Blackbird
TTITLE2=Ancient eyes
TTITLE3=Citadel
TTITLE4=Warriors
TTITLE5=Angel Street
EXTD=YEAR: 1993
EXTT0=
EXTT1=
EXTT2=
EXTT3=
EXTT4=
EXTT5=
PLAYORDER=
